<?xml version="1.0" encoding="UTF-8"?>
<svg xmlns="http://www.w3.org/2000/svg" xmlns:xlink="http://www.w3.org/1999/xlink" width="512px" height="512px" viewBox="0 0 512 512" version="1.1">
<g id="surface1">
<path style=" stroke:none;fill-rule:nonzero;fill:rgb(6.27451%,25.098039%,23.529412%);fill-opacity:1;" d="M 256 0 C 114.613281 0 0 114.613281 0 256 C 0 397.386719 114.613281 512 256 512 C 397.386719 512 512 397.386719 512 256 C 512 114.613281 397.386719 0 256 0 Z M 219.257812 239.890625 C 216.566406 255.511719 214.191406 271.175781 211.28125 286.75 C 210.714844 289.808594 210.257812 292.863281 209.675781 295.875 C 209.222656 298.46875 208.132812 300.914062 206.503906 302.980469 C 205.445312 304.457031 203.765625 305.355469 201.953125 305.414062 C 200.140625 305.472656 198.402344 304.6875 197.25 303.289062 C 193.199219 298.757812 190.34375 293.285156 188.949219 287.371094 C 187.371094 281.046875 186.304688 274.605469 185.757812 268.113281 C 185.128906 262.226562 184.496094 256.347656 183.855469 250.46875 C 183.363281 245.835938 182.960938 241.207031 182.164062 236.613281 C 180.832031 228.4375 178.304688 220.5 174.660156 213.0625 C 173.523438 210.246094 171.355469 207.972656 168.601562 206.703125 C 165.421875 205.210938 161.628906 206.296875 159.722656 209.246094 C 158.070312 211.746094 156.820312 214.484375 156.023438 217.371094 C 153.441406 226.410156 151.683594 235.648438 149.566406 244.796875 C 147.011719 255.726562 144.605469 266.683594 141.960938 277.589844 C 141.34375 280.785156 140.375 283.902344 139.066406 286.878906 C 138.679688 287.730469 138.179688 288.519531 137.582031 289.234375 C 136.738281 290.359375 135.183594 290.664062 133.976562 289.945312 C 132.171875 289.007812 130.539062 287.769531 129.152344 286.285156 C 128.046875 284.945312 127.679688 283.144531 128.175781 281.476562 C 129.566406 273.425781 131.582031 265.492188 134.199219 257.75 C 137.132812 249.6875 138.859375 241.28125 141.226562 233.050781 C 142.886719 227.273438 144.390625 221.429688 146.097656 215.695312 C 147.429688 210.847656 149.453125 206.214844 152.101562 201.941406 C 153.261719 199.820312 155.113281 198.15625 157.34375 197.226562 C 159.53125 196.496094 161.863281 196.332031 164.128906 196.746094 C 170.460938 197.699219 176.097656 201.261719 179.671875 206.574219 C 184.074219 213.167969 187.144531 220.558594 188.714844 228.328125 C 190.449219 236.109375 191.511719 243.957031 192.925781 251.765625 C 193.996094 257.71875 194.683594 263.726562 195.820312 269.671875 C 196.632812 273.921875 197.417969 278.160156 198.542969 282.332031 C 198.664062 282.792969 198.839844 283.242188 198.984375 283.695312 C 199.058594 283.703125 199.132812 283.703125 199.207031 283.695312 C 199.464844 282.003906 199.679688 280.308594 199.96875 278.628906 C 201.234375 271.769531 202.523438 264.914062 203.84375 258.0625 C 205.976562 246.699219 208.085938 235.335938 210.722656 224.082031 C 215.84375 201.097656 222.367188 178.445312 230.253906 156.257812 C 232.316406 150.613281 234.695312 145.09375 237.261719 139.644531 C 237.527344 139.074219 237.824219 138.519531 238.148438 137.980469 C 238.523438 137.269531 239.292969 136.863281 240.089844 136.957031 C 242.339844 137.144531 244.566406 137.574219 246.722656 138.246094 C 247.769531 138.710938 248.390625 139.800781 248.25 140.9375 C 248.203125 141.664062 248.0625 142.382812 247.832031 143.078125 C 246.050781 147.984375 244.199219 152.84375 242.054688 157.597656 C 239.839844 162.902344 237.960938 168.339844 236.421875 173.882812 C 233.1875 184.25 230.179688 194.683594 227.058594 205.074219 C 223.75 216.511719 221.144531 228.136719 219.257812 239.890625 Z M 268.722656 328.671875 C 268.035156 335.621094 267.394531 342.558594 266.667969 349.496094 C 265.988281 356.863281 266.566406 364.289062 268.386719 371.460938 C 268.640625 372.53125 268.960938 373.605469 267.792969 374.402344 C 266.722656 375.25 265.195312 375.203125 264.183594 374.289062 C 260.242188 371.554688 257.683594 367.242188 257.175781 362.472656 C 256.265625 355.914062 255.992188 349.285156 256.359375 342.671875 C 256.371094 342.457031 256.371094 342.238281 256.359375 342.023438 C 255.910156 342.167969 255.792969 342.574219 255.59375 342.871094 C 253.207031 346.785156 250.570312 350.542969 247.699219 354.121094 C 246.015625 356.21875 243.9375 357.976562 241.585938 359.285156 C 238.425781 361.328125 234.222656 360.542969 232.011719 357.5 C 229.964844 355.070312 228.527344 352.1875 227.824219 349.09375 C 226.9375 345.234375 226.984375 341.222656 227.953125 337.386719 C 229.648438 329.445312 232.644531 321.839844 236.820312 314.878906 C 239.640625 310.355469 241.226562 309.84375 246.1875 311.863281 C 248.679688 312.886719 251.355469 313.246094 253.828125 314.359375 C 254.320312 314.570312 254.894531 314.417969 255.214844 313.984375 C 255.484375 313.695312 255.703125 313.363281 255.863281 313 C 256.589844 311.097656 257.007812 310.707031 259.5 311.472656 C 261.992188 312.234375 264.527344 313.550781 267.140625 314.238281 C 268.433594 314.566406 268.761719 315.890625 269.203125 316.996094 C 269.265625 318.601562 269.34375 320.191406 269.402344 321.796875 C 269.226562 324.058594 268.953125 326.359375 268.730469 328.671875 Z M 321.828125 368.167969 C 316.253906 368.183594 311.222656 364.839844 309.082031 359.699219 C 306.941406 354.554688 308.113281 348.628906 312.050781 344.6875 C 315.988281 340.746094 321.914062 339.570312 327.058594 341.710938 C 332.203125 343.847656 335.550781 348.878906 335.535156 354.449219 C 335.519531 362.011719 329.398438 368.144531 321.835938 368.175781 Z M 383.6875 177.074219 C 383.273438 178.089844 382.785156 179.074219 382.226562 180.019531 C 381.582031 181.171875 380.398438 181.917969 379.078125 181.996094 C 375.257812 182.394531 371.582031 183.464844 367.824219 184.144531 L 353.507812 186.726562 C 352.953125 186.835938 352.40625 186.988281 351.875 187.179688 C 350.316406 187.664062 349.144531 188.957031 348.816406 190.554688 C 348.054688 193.453125 347.671875 196.417969 347.050781 199.34375 C 345.339844 207.398438 343.820312 215.492188 341.769531 223.46875 C 340.089844 230.164062 339.082031 237.03125 337.53125 243.75 C 335.734375 251.5 333.839844 259.253906 332.554688 267.140625 C 330.535156 277.425781 329.492188 287.878906 329.445312 298.359375 C 329.671875 301.273438 329.605469 304.207031 329.238281 307.109375 C 328.921875 308.929688 327.460938 310.332031 325.632812 310.585938 C 320.949219 310.960938 320.382812 310.386719 319.257812 305.234375 C 318.84375 302.402344 318.84375 299.523438 319.257812 296.691406 C 319.542969 292.871094 319.910156 289.050781 320.449219 285.289062 C 321.214844 279.941406 321.679688 274.523438 322.628906 269.191406 C 323.394531 264.832031 324.433594 260.53125 325.28125 256.199219 C 326.511719 250 328.429688 243.972656 329.453125 237.734375 C 330.226562 233 331.066406 228.261719 331.976562 223.53125 C 332.882812 218.859375 333.503906 214.152344 334.558594 209.523438 C 334.777344 208.550781 335.054688 207.582031 335.320312 206.640625 L 335.199219 206.640625 L 333.210938 210.460938 C 327.097656 222.207031 320.808594 233.898438 313.664062 245.078125 C 310.742188 250.015625 306.949219 254.378906 302.460938 257.957031 C 300.082031 259.976562 296.96875 260.917969 293.867188 260.558594 C 290.765625 260.195312 287.953125 258.566406 286.101562 256.054688 C 283.140625 251.988281 280.90625 247.445312 279.492188 242.621094 C 278.359375 239.164062 277.847656 235.566406 276.90625 232.074219 C 276.664062 230.960938 276.238281 229.894531 275.65625 228.917969 C 275.394531 229.335938 275.15625 229.683594 274.96875 230.027344 C 270.917969 237.335938 266.1875 244.246094 260.828125 250.660156 C 258.246094 254.03125 254.847656 256.699219 250.957031 258.40625 C 250.097656 258.753906 249.203125 259.011719 248.289062 259.171875 C 246.625 259.542969 244.882812 259.058594 243.652344 257.878906 C 239.335938 254.222656 237.023438 248.726562 237.429688 243.085938 C 237.773438 240.246094 238.488281 237.464844 239.554688 234.808594 C 241.574219 228.855469 244.292969 223.164062 247.65625 217.851562 C 249.226562 215.5 251.042969 213.324219 253.074219 211.355469 C 254.839844 209.488281 257.40625 208.59375 259.949219 208.957031 C 263.289062 209.289062 266.597656 209.886719 269.839844 210.753906 C 273.109375 211.574219 275.621094 214.195312 276.296875 217.5 C 276.566406 219.351562 278.097656 220.765625 279.964844 220.886719 C 281.824219 221.085938 283.328125 222.488281 283.65625 224.332031 C 284.34375 226.800781 284.863281 229.300781 285.472656 231.78125 C 286.34375 235.304688 286.667969 238.9375 287.722656 242.40625 C 288.347656 245.371094 289.640625 248.160156 291.496094 250.558594 C 291.976562 251.175781 292.796875 251.417969 293.535156 251.164062 C 294.652344 250.804688 295.621094 250.09375 296.304688 249.136719 C 300.710938 243.820312 304.734375 238.195312 308.347656 232.308594 C 312.929688 224.945312 317.300781 217.453125 321.511719 209.867188 C 323.453125 206.34375 324.90625 202.578125 326.625 198.9375 C 327.722656 196.742188 328.664062 194.46875 329.4375 192.136719 C 330.085938 190.050781 330.027344 189.9375 327.910156 190.195312 C 322.300781 190.847656 316.636719 191.097656 311.058594 191.992188 C 308.40625 192.421875 305.777344 193.054688 303.125 193.476562 C 301.082031 193.941406 298.9375 193.4375 297.3125 192.113281 C 296.296875 191.257812 295.285156 190.386719 294.332031 189.464844 C 293.648438 188.964844 293.257812 188.15625 293.292969 187.308594 C 293.316406 186.527344 293.792969 185.835938 294.515625 185.535156 C 296.214844 184.957031 298 184.648438 299.796875 184.625 C 307.152344 183.730469 314.511719 182.914062 321.878906 182.042969 C 324.851562 181.699219 327.824219 181.277344 330.796875 181.019531 C 333.121094 180.824219 335.214844 179.546875 336.453125 177.574219 C 339.570312 172.8125 342.03125 167.65625 343.773438 162.242188 C 344.421875 160.386719 345.066406 158.535156 345.5625 156.648438 C 346.261719 154.289062 347.238281 152.023438 348.472656 149.894531 C 348.839844 148.96875 349.773438 148.398438 350.765625 148.496094 C 353.074219 148.601562 355.289062 149.417969 357.117188 150.832031 C 357.851562 151.382812 358.25 152.273438 358.171875 153.1875 C 358.0625 154.3125 357.847656 155.421875 357.519531 156.503906 C 355.921875 162.226562 354.320312 167.949219 352.722656 173.675781 L 352.660156 173.859375 C 352.011719 176.3125 352.914062 176.65625 354.832031 176.511719 C 361.394531 176.027344 367.933594 175.34375 374.457031 174.460938 C 375.984375 174.261719 377.511719 174.117188 379.039062 173.988281 C 380.03125 173.878906 381.035156 173.910156 382.019531 174.074219 C 383.886719 174.402344 384.414062 175.265625 383.695312 177.082031 Z M 383.6875 177.074219 "/>
<path style=" stroke:none;fill-rule:nonzero;fill:rgb(6.27451%,25.098039%,23.529412%);fill-opacity:1;" d="M 262.761719 219.203125 C 262.21875 219.195312 261.6875 219.355469 261.234375 219.65625 C 260.453125 220.140625 259.765625 220.765625 259.21875 221.503906 C 258.199219 223.035156 257.191406 224.636719 256.160156 226.203125 C 252.996094 231.335938 250.375 236.785156 248.335938 242.457031 C 248.03125 243.269531 247.875 244.117188 248.734375 244.699219 C 249.589844 245.277344 250.109375 244.597656 250.652344 244.101562 C 254.402344 240.84375 257.546875 236.945312 259.941406 232.59375 C 261.328125 230.078125 262.738281 227.574219 264.109375 225.035156 C 264.640625 224.03125 264.992188 222.945312 265.148438 221.816406 C 265.195312 221.152344 264.972656 220.5 264.523438 220.003906 C 264.078125 219.511719 263.453125 219.21875 262.785156 219.195312 Z M 262.761719 219.203125 "/>
<path style=" stroke:none;fill-rule:nonzero;fill:rgb(6.27451%,25.098039%,23.529412%);fill-opacity:1;" d="M 247.105469 324.292969 C 245.117188 326.199219 243.472656 328.433594 242.246094 330.898438 C 240.945312 334.058594 239.945312 337.335938 239.265625 340.6875 C 239.125 341.246094 238.996094 341.941406 239.824219 342.214844 C 240.648438 342.488281 240.824219 341.847656 241.066406 341.335938 C 242.046875 339.351562 243.175781 337.449219 244.445312 335.636719 C 245.773438 333.664062 247.105469 331.683594 248.265625 329.605469 C 248.851562 328.6875 249.199219 327.636719 249.273438 326.550781 C 249.28125 325.824219 249.054688 325.117188 248.632812 324.53125 C 248.199219 323.980469 247.6875 323.675781 247.105469 324.292969 Z M 247.105469 324.292969 "/>
</g>
</svg>
